<svg width="155" height="25" viewBox="0 0 155 25" fill="none" xmlns="http://www.w3.org/2000/svg">
<path fill-rule="evenodd" clip-rule="evenodd" d="M116.585 23.187C117.339 23.4876 118.177 23.7502 119.101 23.9749C120.9 24.3859 122.742 24.5913 124.628 24.5913C126.904 24.5913 128.833 24.2561 130.415 23.5856C132.019 22.8935 133.222 21.9743 134.024 20.828C134.826 19.6601 135.227 18.3624 135.227 16.9349C135.227 15.2912 134.783 13.9935 133.894 13.0418C133.027 12.0902 131.998 11.4089 130.806 10.998C129.613 10.5654 128.15 10.1869 126.416 9.86248C125.072 9.60294 124.108 9.36504 123.523 9.14875C122.937 8.91084 122.645 8.56479 122.645 8.1106C122.645 7.15895 123.631 6.68313 125.603 6.68313C127.598 6.68313 129.711 7.24546 131.944 8.37013L134.252 2.82248C133.103 2.17363 131.77 1.687 130.253 1.36257C128.757 1.01652 127.229 0.843494 125.668 0.843494C123.393 0.843494 121.453 1.17873 119.849 1.84921C119.273 2.09312 118.749 2.36996 118.277 2.67971C119.883 5.35228 120.686 8.37103 120.686 11.736C120.686 12.801 120.606 13.833 120.445 14.8319C121.413 15.1226 122.536 15.4019 123.815 15.6697C125.181 15.9509 126.156 16.2104 126.741 16.4483C127.348 16.6862 127.652 17.0431 127.652 17.5189C127.652 17.9298 127.424 18.2434 126.969 18.4597C126.514 18.6544 125.755 18.7517 124.693 18.7517C123.458 18.7517 122.168 18.5679 120.824 18.2002C120.433 18.087 120.054 17.9638 119.685 17.8306C119.298 18.9291 118.799 19.9814 118.188 20.9876C117.707 21.7697 117.172 22.5028 116.585 23.187ZM84.4817 20.9876C85.177 22.1181 85.9832 23.1464 86.9004 24.0723H78.1101V22.6124C77.048 23.8019 75.4223 24.3967 73.2331 24.3967C71.6724 24.3967 70.231 24.029 68.9088 23.2936C67.6083 22.5367 66.5678 21.4552 65.7875 20.0494C65.0289 18.6436 64.6496 17.0214 64.6496 15.183C64.6496 13.3446 65.0289 11.7333 65.7875 10.3491C66.5678 8.94328 67.6083 7.87269 68.9088 7.13732C70.231 6.38033 71.6724 6.00184 73.2331 6.00184C75.2056 6.00184 76.712 6.5101 77.7524 7.52663V8.29443e-08L86.3537 0C85.6594 0.777735 85.0353 1.62217 84.4817 2.5333C82.816 5.24188 81.9832 8.30943 81.9832 11.736C81.9832 15.1625 82.816 18.2463 84.4817 20.9876ZM74.9888 18.6868C75.8341 18.6868 76.5278 18.384 77.0697 17.7784C77.6115 17.1512 77.8825 16.2861 77.8825 15.183C77.8825 14.08 77.6115 13.2257 77.0697 12.6201C76.5278 12.0145 75.8341 11.7117 74.9888 11.7117C74.1435 11.7117 73.4498 12.0145 72.9079 12.6201C72.3661 13.2257 72.0951 14.08 72.0951 15.183C72.0951 16.2861 72.3661 17.1512 72.9079 17.7784C73.4498 18.384 74.1435 18.6868 74.9888 18.6868ZM7.67315 7.13732V11.0304H17.167V16.8052H7.67315V24.0723H0V1.36257H18.5001V7.13732H7.67315ZM39.822 6.32626V24.0723H32.8316V22.3853C32.1813 23.0557 31.4227 23.564 30.5557 23.9101C29.6887 24.2345 28.7674 24.3967 27.792 24.3967C25.5378 24.3967 23.7279 23.7154 22.3623 22.3528C20.9968 20.9686 20.314 18.8923 20.314 16.1239V6.32626H27.662V14.8586C27.662 16.0698 27.8571 16.9349 28.2472 17.454C28.6374 17.9731 29.2118 18.2326 29.9704 18.2326C30.6857 18.2326 31.2818 17.9515 31.7587 17.3891C32.2355 16.8052 32.474 15.8968 32.474 14.664V6.32626H39.822ZM60.7034 7.98083C59.3812 6.6615 57.6255 6.00184 55.4362 6.00184C54.3741 6.00184 53.3879 6.17487 52.4775 6.52092C51.5672 6.86697 50.7652 7.38605 50.0715 8.07816V6.32626H43.0812V24.0723H50.4292V15.7346C50.4292 14.5018 50.6785 13.6042 51.177 13.0418C51.6972 12.4579 52.3692 12.1659 53.1928 12.1659C54.6451 12.1659 55.3712 13.1824 55.3712 15.2155V24.0723H62.7192V13.9502C62.7192 11.29 62.0473 9.30015 60.7034 7.98083ZM144.401 24.5913C142.515 24.5913 140.672 24.3859 138.873 23.9749C137.403 23.6172 136.694 23.1632 135.843 22.6131C136.317 22.0825 136.752 21.4869 137.162 20.811C137.888 19.6143 138.171 18.3654 138.237 17.3344C138.973 17.6691 139.76 17.9577 140.597 18.2002C141.94 18.5679 143.23 18.7517 144.466 18.7517C145.528 18.7517 146.286 18.6544 146.742 18.4597C147.197 18.2434 147.424 17.9298 147.424 17.5189C147.424 17.0431 147.121 16.6862 146.514 16.4483C145.929 16.2104 144.953 15.9509 143.588 15.6697C141.832 15.302 140.369 14.9127 139.199 14.5018C138.028 14.0692 137.009 13.3771 136.142 12.4254C135.275 11.4522 134.842 10.1437 134.842 8.49991C134.842 7.07244 135.243 5.77474 136.045 4.60681C136.847 3.43889 138.039 2.51968 139.621 1.84921C141.225 1.17873 143.165 0.843494 145.441 0.843494C147.002 0.843494 148.53 1.01652 150.025 1.36257C151.543 1.687 152.876 2.17363 154.025 2.82248L151.716 8.37013C149.484 7.24546 147.37 6.68313 145.376 6.68313C143.404 6.68313 142.417 7.15895 142.417 8.1106C142.417 8.56479 142.71 8.91084 143.295 9.14875C143.88 9.36504 144.845 9.60294 146.189 9.86248C147.923 10.1869 149.386 10.5654 150.578 10.998C151.77 11.4089 152.8 12.0902 153.667 13.0418C154.556 13.9935 155 15.2912 155 16.9349C155 18.3624 154.599 19.6601 153.797 20.828C152.995 21.9743 151.792 22.8935 150.188 23.5856C148.606 24.2561 146.677 24.5913 144.401 24.5913Z" fill="#8D62E3"/>
<path fill-rule="evenodd" clip-rule="evenodd" d="M104.609 17.727C103.674 18.2869 102.618 18.5668 101.443 18.5668C100.267 18.5668 99.1982 18.2869 98.2362 17.727C97.301 17.1404 96.5529 16.3273 95.9918 15.2874C95.4306 14.221 95.1501 12.9812 95.1501 11.5681C95.1501 10.1551 95.4306 8.92864 95.9918 7.88884C96.5529 6.82237 97.301 6.00919 98.2362 5.44929C99.1982 4.86274 100.267 4.56946 101.443 4.56946C102.618 4.56946 103.674 4.86274 104.609 5.44929C105.571 6.00919 106.332 6.82237 106.894 7.88884C107.455 8.92864 107.735 10.1551 107.735 11.5681C107.735 12.9812 107.455 14.221 106.894 15.2874C106.332 16.3273 105.571 17.1404 104.609 17.727Z" fill="#3A00AD"/>
</svg>
