<svg width="166" height="38" viewBox="0 0 166 38" fill="none" xmlns="http://www.w3.org/2000/svg">
<path fill-rule="evenodd" clip-rule="evenodd" d="M48.7973 22.4686H55.6992V23.0209C55.6992 24.2757 55.5516 25.3864 55.2557 26.3523C54.9668 27.2468 54.4797 28.0838 53.7951 28.8626C52.2444 30.608 50.2718 31.4796 47.8772 31.4796C45.5408 31.4796 43.5397 30.6364 41.874 28.9485C40.2076 27.2537 39.3748 25.2201 39.3748 22.8469C39.3748 20.4239 40.2222 18.3681 41.917 16.6809C43.6118 14.9861 45.6745 14.1387 48.1051 14.1387C49.4098 14.1387 50.6286 14.4048 51.7608 14.9356C52.8431 15.467 53.9067 16.3303 54.9522 17.5249L53.157 19.2453C51.7864 17.4202 50.1166 16.5077 48.1481 16.5077C46.3812 16.5077 44.8991 17.1175 43.7018 18.3362C42.5045 19.5336 41.9059 21.0337 41.9059 22.8365C41.9059 24.6969 42.5731 26.2296 43.9076 27.4345C45.1548 28.5522 46.5073 29.1106 47.9645 29.1106C49.2047 29.1106 50.3189 28.6935 51.307 27.8593C52.295 27.0174 52.8466 26.0107 52.9623 24.8376H48.7973V22.4686Z" fill="white"/>
<mask id="mask0" mask-type="alpha" maskUnits="userSpaceOnUse" x="0" y="0" width="166" height="38">
<path d="M0 38H165.339V0H0V38Z" fill="white"/>
</mask>
<g mask="url(#mask0)">
<path fill-rule="evenodd" clip-rule="evenodd" d="M64.629 31.1661H67.1498V14.4633H64.629V31.1661Z" fill="white"/>
<path fill-rule="evenodd" clip-rule="evenodd" d="M81.5322 16.8325V31.1663H79.0115V16.8325H75.1715V14.4636H85.3618V16.8325H81.5322Z" fill="white"/>
<path fill-rule="evenodd" clip-rule="evenodd" d="M105.121 15.3558V18.3366C103.664 17.1171 102.156 16.508 100.599 16.508C98.8819 16.508 97.4358 17.1247 96.2607 18.358C95.078 19.5838 94.4862 21.0839 94.4862 22.8583C94.4862 24.6107 95.078 26.0893 96.2607 27.2935C97.4435 28.4985 98.893 29.1006 100.609 29.1006C101.497 29.1006 102.25 28.9558 102.871 28.6675C103.217 28.5234 103.576 28.3287 103.947 28.0834C104.318 27.8381 104.71 27.5423 105.121 27.1958V30.2418C103.678 31.0601 102.163 31.4695 100.577 31.4695C98.1897 31.4695 96.1526 30.6367 94.4647 28.9703C92.7845 27.2901 91.944 25.2634 91.944 22.8909C91.944 20.7631 92.6473 18.8666 94.0539 17.2002C95.7847 15.1597 98.0241 14.1384 100.772 14.1384C102.272 14.1384 103.722 14.5444 105.121 15.3558Z" fill="white"/>
<path fill-rule="evenodd" clip-rule="evenodd" d="M116 20.1048C116 21.9493 116.621 23.466 117.861 24.6557C119.094 25.844 120.519 26.4385 122.134 26.4385C123.887 26.4385 125.365 25.8329 126.57 24.6225C127.774 23.3981 128.376 21.9063 128.376 20.1478C128.376 18.3685 127.781 16.8767 126.591 15.6731C125.409 14.4627 123.944 13.8571 122.199 13.8571C120.461 13.8571 118.993 14.4627 117.796 15.6731C116.598 16.8698 116 18.3463 116 20.1048ZM113.458 20.0778C113.458 17.7269 114.32 15.7071 116.043 14.0192C117.76 12.332 119.822 11.4881 122.232 11.4881C124.612 11.4881 126.652 12.339 128.355 14.0414C130.064 15.7431 130.918 17.7878 130.918 20.1748C130.918 22.5764 130.06 24.6141 128.344 26.2875C126.62 27.9677 124.539 28.8082 122.102 28.8082C119.945 28.8082 118.009 28.0613 116.292 26.5681C114.403 24.9169 113.458 22.7537 113.458 20.0778Z" fill="#0FCE7C"/>
<path fill-rule="evenodd" clip-rule="evenodd" d="M138.342 31.1661H140.863V14.4633H138.342V31.1661Z" fill="white"/>
<path fill-rule="evenodd" clip-rule="evenodd" d="M150.637 31.1663V13.3273L162.818 26.0708V14.4636H165.338V32.1835L153.157 19.4718V31.1663H150.637Z" fill="white"/>
<path fill-rule="evenodd" clip-rule="evenodd" d="M16.0833 8.1653V4.60317C16.0833 4.03846 15.6246 3.57977 15.0592 3.57977C14.4938 3.57977 14.0358 4.03846 14.0358 4.60317V8.2436C14.5562 8.18609 15.0848 8.15352 15.6204 8.15352C15.7757 8.15352 15.9295 8.16045 16.0833 8.1653Z" fill="white"/>
<path fill-rule="evenodd" clip-rule="evenodd" d="M21.0368 16.472L21.2017 16.6321C22.7683 18.1536 23.631 20.1949 23.631 22.3789C23.631 24.4707 22.8293 26.4503 21.3742 27.9531L21.2939 28.0349L21.9556 28.6765L23.6088 29.9847C25.5711 27.9247 26.6527 25.2273 26.6527 22.3789C26.6527 19.3932 25.4803 16.603 23.3531 14.5125L22.3152 15.4909L21.0368 16.472Z" fill="#0FCE7C"/>
<path fill-rule="evenodd" clip-rule="evenodd" d="M23.4642 30.1374L23.5439 30.0549C23.5661 30.0321 23.5868 30.0078 23.6083 29.9849L21.9558 28.6761L23.4642 30.1374Z" fill="#0FCE7C"/>
<path fill-rule="evenodd" clip-rule="evenodd" d="M24.7255 35.2076H15.6202C8.54656 35.2076 2.79144 29.4525 2.79144 22.3788C2.79144 15.3045 8.54656 9.55003 15.6202 9.55003C18.5574 9.55003 21.3435 10.5298 23.6051 12.3354L17.3545 18.1106C16.8189 17.8924 16.2341 17.7711 15.6202 17.7711C13.0801 17.7711 11.0125 19.838 11.0125 22.3788C11.0125 24.9196 13.0801 26.9865 15.6202 26.9865C16.0727 26.9865 16.5099 26.92 16.9229 26.7981L24.7255 32.671V35.2076ZM15.6202 24.1942C14.6197 24.1942 13.8049 23.38 13.8049 22.3788C13.8049 21.3776 14.6197 20.5628 15.6202 20.5628C16.6222 20.5628 17.4363 21.3776 17.4363 22.3788C17.4363 23.38 16.6222 24.1942 15.6202 24.1942ZM20.2286 22.3788C20.2286 21.4739 19.9653 20.63 19.5136 19.9177L23.2413 16.4734L23.2732 16.5066L27.6834 12.3493L26.6669 11.3328C23.7159 8.38251 19.7935 6.75769 15.6202 6.75769C7.00696 6.75769 -0.000205994 13.7649 -0.000205994 22.3788C-0.000205994 30.9069 6.87046 37.8565 15.3673 37.993V38H27.5178V31.2783L19.3265 25.1123C19.8933 24.3473 20.2286 23.4015 20.2286 22.3788Z" fill="white"/>
<path fill-rule="evenodd" clip-rule="evenodd" d="M30.7462 5.37164L29.6272 6.49065L28.5082 5.37164L29.6272 4.25262L30.7462 5.37164Z" fill="#25E899"/>
<path fill-rule="evenodd" clip-rule="evenodd" d="M20.0915 5.50421L19.5566 6.03912L19.0217 5.50421L19.5566 4.9693L20.0915 5.50421Z" fill="#25E899"/>
<path fill-rule="evenodd" clip-rule="evenodd" d="M25.6486 0.806642C25.6486 0.361116 25.2876 0.00012207 24.8421 0.00012207C24.3965 0.00012207 24.0356 0.361116 24.0356 0.806642C24.0356 1.25217 24.3965 1.61316 24.8421 1.61316C25.2876 1.61316 25.6486 1.25217 25.6486 0.806642Z" fill="#25E899"/>
<path fill-rule="evenodd" clip-rule="evenodd" d="M10.2136 16.5145C9.64818 16.5145 9.18948 16.0558 9.18948 15.4904V4.60374C9.18948 4.03765 9.64818 3.57965 10.2136 3.57965C10.779 3.57965 11.237 4.03765 11.237 4.60374V15.4904C11.237 16.0558 10.779 16.5145 10.2136 16.5145Z" fill="white"/>
</g>
</svg>
