<svg width="156" height="12" viewBox="0 0 156 12" fill="none" xmlns="http://www.w3.org/2000/svg">
<path d="M15.0117 5.43129C14.3483 4.77363 13.5511 4.44495 12.6197 4.44495H3.38687C3.21539 4.44495 3.06828 4.38452 2.94524 4.26337C2.82219 4.14251 2.76082 3.99512 2.76082 3.82116V3.06157C2.76082 2.89555 2.82219 2.75181 2.94524 2.63065C3.06828 2.5098 3.21539 2.44907 3.38687 2.44907H15.2912C15.321 2.44907 15.345 2.43961 15.3636 2.42069C15.3823 2.40207 15.3917 2.38102 15.3917 2.35843V0.0906383C15.3917 0.0604257 15.3823 0.0378424 15.3636 0.0225833C15.345 0.00762953 15.3207 0 15.2912 0H3.38687C2.44794 0 1.64861 0.328984 0.989166 0.986647C0.329722 1.64431 0 2.43778 0 3.36767V3.51506C0 4.45258 0.329722 5.25002 0.989166 5.90768C1.64861 6.56534 2.44794 6.89402 3.38687 6.89402H12.6197C12.7836 6.89402 12.9271 6.95261 13.0499 7.06981C13.1729 7.18699 13.2343 7.33256 13.2343 7.50653V8.26612C13.2343 8.44005 13.1729 8.58562 13.0499 8.70285C12.9269 8.82 12.7833 8.87858 12.6197 8.87858H0.70427C0.682008 8.87858 0.661249 8.8881 0.642898 8.907C0.624245 8.9259 0.614919 8.95065 0.614919 8.98087V11.2487C0.614919 11.2712 0.624245 11.2923 0.642898 11.3109C0.66155 11.3298 0.682008 11.3393 0.70427 11.3393H12.6197C13.5511 11.3393 14.3483 11.0088 15.0117 10.3471C15.6747 9.6858 16.0066 8.8902 16.0066 7.96035V7.8126C16.0063 6.88273 15.6747 6.08896 15.0117 5.43129Z" fill="white"/>
<path d="M35.0561 0H32.4739C32.4517 0 32.4309 0.00762953 32.4126 0.0225833C32.3939 0.0378424 32.3846 0.0604257 32.3846 0.0906383V2.97062C32.3846 3.21995 32.2577 3.40917 32.0046 3.53765L26.8518 5.70321L21.699 3.53765C21.4457 3.40917 21.319 3.22026 21.319 2.97062V0.0906383C21.319 0.0604257 21.3115 0.0378424 21.2968 0.0225833C21.2815 0.00762953 21.2592 0 21.2294 0H18.6473C18.6251 0 18.6043 0.00762953 18.5859 0.0225833C18.5672 0.0378424 18.5579 0.0604257 18.5579 0.0906383V3.39025C18.5579 3.8819 18.6921 4.33142 18.9605 4.73945C19.2288 5.14778 19.5937 5.44991 20.0558 5.64644L25.4658 7.94813V11.2367C25.4658 11.267 25.4752 11.2917 25.4939 11.3106C25.5125 11.3295 25.5366 11.339 25.5663 11.339H28.1484C28.1707 11.339 28.1912 11.3295 28.2098 11.3106C28.2285 11.2917 28.2378 11.2673 28.2378 11.2367V7.94843L33.6479 5.65804C34.1096 5.45387 34.4752 5.14961 34.7432 4.74525C35.0116 4.34088 35.1455 3.89318 35.1455 3.40154V0.0906383C35.1455 0.0604257 35.1361 0.0378424 35.1174 0.0225833C35.0988 0.00762953 35.0783 0 35.0561 0Z" fill="white"/>
<path d="M54.2353 0H51.6532C51.6234 0 51.6009 0.00946058 51.5861 0.0283818C51.5711 0.0473029 51.5638 0.0680552 51.5638 0.0906382V8.8896H50.4796C50.2783 8.8896 50.1069 8.79892 49.9654 8.61735L44.958 1.1905C44.4212 0.427252 43.6797 0.0302128 42.7336 0H38.4192C38.3894 0 38.365 0.00946058 38.3464 0.0283818C38.3277 0.0473029 38.3184 0.0680552 38.3184 0.0906382V11.248C38.3184 11.2706 38.3277 11.2917 38.3464 11.3103C38.365 11.3292 38.3891 11.3386 38.4192 11.3386H41.0013C41.0235 11.3386 41.044 11.3292 41.0627 11.3103C41.0814 11.2917 41.0907 11.2706 41.0907 11.248V2.44907H42.1749C42.3762 2.44907 42.5473 2.54368 42.6891 2.73259L47.6965 10.1594C48.2333 10.923 48.9745 11.3161 49.9209 11.3386H54.2356C54.2654 11.3386 54.2877 11.3292 54.3027 11.3103C54.3174 11.2917 54.3249 11.2706 54.3249 11.248V0.0906382C54.3249 0.0680552 54.3174 0.0473029 54.3027 0.0283818C54.2873 0.00946058 54.2651 0 54.2353 0Z" fill="white"/>
<path d="M72.8981 0H57.0816C57.0519 0 57.0292 0.00946058 57.0145 0.0283818C56.9995 0.0473029 56.9923 0.0680552 56.9923 0.0906382V2.35843C56.9923 2.38102 56.9995 2.40207 57.0145 2.42069C57.0292 2.43961 57.0519 2.44907 57.0816 2.44907H63.6093V11.248C63.6093 11.2706 63.6165 11.2917 63.6315 11.3103C63.6463 11.3292 63.6689 11.3386 63.6987 11.3386H66.2808C66.3106 11.3386 66.3328 11.3292 66.3478 11.3103C66.3626 11.2917 66.3701 11.2706 66.3701 11.248V2.44907H72.8978C72.9276 2.44907 72.9517 2.43961 72.9703 2.42069C72.9889 2.40177 72.9982 2.38102 72.9982 2.35843V0.0906382C72.9982 0.0680552 72.9889 0.0473029 72.9703 0.0283818C72.9523 0.00946058 72.9279 0 72.8981 0Z" fill="white"/>
<path d="M92.077 0H89.4945C89.4723 0 89.4516 0.00946058 89.4331 0.0283818C89.4146 0.0473029 89.4057 0.0680552 89.4057 0.0906382V4.44464H78.9434V0.0906382C78.9434 0.0680552 78.9338 0.0473029 78.9153 0.0283818C78.8968 0.00976575 78.8724 0 78.8428 0H76.2603C76.2381 0 76.2174 0.00946058 76.199 0.0283818C76.1805 0.0473029 76.1709 0.0680552 76.1709 0.0906382V11.248C76.1709 11.2706 76.1805 11.2917 76.199 11.3103C76.2174 11.3292 76.2381 11.3386 76.2603 11.3386H78.8428C78.8724 11.3386 78.8968 11.3292 78.9153 11.3103C78.9338 11.2914 78.9434 11.2706 78.9434 11.248V6.89402H89.4057V11.248C89.4057 11.2706 89.4146 11.2917 89.4331 11.3103C89.4523 11.3292 89.4723 11.3386 89.4945 11.3386H92.077C92.1065 11.3386 92.1309 11.3292 92.1494 11.3103C92.1679 11.2914 92.1775 11.2706 92.1775 11.248V0.0906382C92.1775 0.0680552 92.1679 0.0473029 92.1494 0.0283818C92.1309 0.00946058 92.1065 0 92.077 0Z" fill="white"/>
<path d="M111.188 0H98.6578C97.7262 0 96.9285 0.328679 96.2653 0.98634C95.6021 1.64401 95.2709 2.43778 95.2709 3.36767V7.95968C95.2709 8.89725 95.6021 9.69465 96.2653 10.3523C96.9285 11.01 97.7262 11.339 98.6578 11.339H111.188C111.21 11.339 111.23 11.3295 111.249 11.3106C111.267 11.2917 111.277 11.2709 111.277 11.2484V8.98058C111.277 8.95035 111.268 8.92778 111.249 8.91248C111.23 8.89755 111.21 8.8899 111.188 8.8899H98.6578C98.4863 8.8899 98.3406 8.82945 98.2216 8.70863C98.1026 8.5878 98.0427 8.44403 98.0427 8.27768V6.89402H111.18C111.21 6.89402 111.232 6.88456 111.247 6.86564C111.261 6.84672 111.269 6.82597 111.269 6.80339V4.53559C111.269 4.50538 111.261 4.4828 111.247 4.46753C111.232 4.45258 111.21 4.44495 111.18 4.44495H98.0427V3.06157C98.0427 2.89525 98.1026 2.75181 98.2216 2.63066C98.3406 2.5098 98.4863 2.44907 98.6578 2.44907H111.188C111.21 2.44907 111.23 2.43961 111.249 2.42069C111.267 2.40207 111.277 2.38102 111.277 2.35844V0.0906383C111.277 0.0680552 111.268 0.047303 111.249 0.0283817C111.23 0.00976575 111.21 0 111.188 0Z" fill="white"/>
<path d="M130.276 0H114.46C114.43 0 114.407 0.00946058 114.392 0.0283818C114.378 0.0473029 114.37 0.0680552 114.37 0.0906382V2.35843C114.37 2.38102 114.378 2.40207 114.392 2.42069C114.407 2.43961 114.43 2.44907 114.46 2.44907H120.987V11.248C120.987 11.2706 120.995 11.2917 121.009 11.3103C121.025 11.3292 121.047 11.3386 121.077 11.3386H123.658C123.689 11.3386 123.711 11.3292 123.726 11.3103C123.741 11.2917 123.748 11.2706 123.748 11.248V2.44907H130.276C130.306 2.44907 130.33 2.43961 130.348 2.42069C130.367 2.40177 130.376 2.38102 130.376 2.35843V0.0906382C130.376 0.0680552 130.367 0.0473029 130.348 0.0283818C130.33 0.00946058 130.306 0 130.276 0Z" fill="white"/>
<path d="M136.288 0.0225833C136.272 0.00762952 136.25 0 136.221 0H133.639C133.608 0 133.586 0.00762952 133.571 0.0225833C133.557 0.0378424 133.549 0.0604257 133.549 0.0906382V11.248C133.549 11.2706 133.557 11.2917 133.571 11.3103C133.586 11.3292 133.608 11.3386 133.639 11.3386H136.221C136.25 11.3386 136.272 11.3292 136.288 11.3103C136.303 11.2914 136.31 11.2706 136.31 11.248V0.0906382C136.31 0.0607309 136.303 0.0378424 136.288 0.0225833Z" fill="white"/>
<path d="M143.417 2.75566C143.305 2.62718 143.167 2.56278 143.003 2.56278H139.65C139.62 2.56278 139.596 2.55332 139.577 2.5344C139.559 2.51579 139.549 2.49473 139.549 2.47214V0.204347C139.549 0.181764 139.559 0.161012 139.577 0.142091C139.596 0.123474 139.62 0.113708 139.65 0.113708H143.193C144.087 0.113708 144.858 0.480536 145.507 1.21358L146.367 2.26798L144.691 4.32032L143.417 2.75566ZM149.608 1.20229C150.257 0.476568 151.032 0.113708 151.934 0.113708H155.466C155.496 0.113708 155.518 0.121338 155.533 0.136292C155.548 0.151551 155.555 0.174134 155.555 0.204347V2.47214C155.555 2.49473 155.548 2.51579 155.533 2.5344C155.518 2.55332 155.496 2.56278 155.466 2.56278H152.113C151.948 2.56278 151.811 2.62718 151.699 2.75566L149.228 5.77175L151.71 8.8104C151.822 8.9316 151.956 8.99205 152.113 8.99205H155.466C155.496 8.99205 155.518 9.0015 155.533 9.0204C155.548 9.0393 155.555 9.06405 155.555 9.09398V11.3618C155.555 11.3843 155.548 11.4054 155.533 11.424C155.518 11.4429 155.496 11.4524 155.466 11.4524H151.934C151.032 11.4524 150.261 11.0858 149.62 10.3525L147.563 7.8354L145.507 10.3525C144.858 11.0858 144.083 11.4524 143.182 11.4524H139.65C139.62 11.4524 139.597 11.4429 139.582 11.424C139.568 11.4051 139.56 11.3807 139.56 11.3501V9.08235C139.56 9.05978 139.568 9.039 139.582 9.0201C139.597 9.0012 139.62 8.99168 139.65 8.99168H143.003C143.159 8.99168 143.298 8.92763 143.417 8.79885L145.842 5.82821L149.608 1.20229Z" fill="white"/>
</svg>
