<svg width="115" height="33" viewBox="0 0 115 33" fill="none" xmlns="http://www.w3.org/2000/svg">
<g clip-path="url(#clip0)">
<path d="M24.4631 10.4406C24.1397 10.3994 23.8164 10.3788 23.4829 10.3788C23.1091 10.3788 22.7352 10.4097 22.3714 10.4612C19.714 10.8215 17.4606 12.4587 16.2178 14.7548C16.0056 15.146 15.8237 15.5682 15.6721 15.9903C14.3687 14.1679 12.368 12.8911 10.0641 12.5822C9.70037 12.5307 9.3265 12.4998 8.95263 12.4998C8.61918 12.4998 8.29584 12.5204 7.97249 12.5616C7.93207 12.8911 7.91187 13.2206 7.91187 13.5604C7.91187 13.9413 7.94218 14.3223 7.9927 14.693C8.48782 18.4615 11.4181 21.4371 15.1063 21.9417C15.1265 21.9417 15.1568 21.9519 15.177 21.9519V29.4271H17.2586V19.8412C17.2788 19.8412 17.3091 19.8309 17.3293 19.8309C21.0275 19.3264 23.9478 16.3404 24.4429 12.5822C24.4934 12.2115 24.5237 11.8306 24.5237 11.4496C24.5237 11.0995 24.5035 10.77 24.4631 10.4406V10.4406Z" fill="white"/>
<path d="M9.63973 5.75569C9.91256 6.0337 10.3369 6.09547 10.6906 5.91014C12.3275 5.02465 14.207 4.52012 16.1875 4.52012C17.8951 4.52012 19.522 4.90109 20.9972 5.57036C21.3307 5.7248 21.7248 5.65273 21.9875 5.38502L23.9781 3.35663C24.4025 2.92418 24.2913 2.20343 23.7659 1.91513C21.5025 0.700156 18.9258 0 16.1875 0C13.146 0 10.2965 0.864898 7.86134 2.35788C7.36621 2.66677 7.28538 3.35663 7.68956 3.77878L9.63973 5.75569Z" fill="white"/>
<path d="M28.6767 7.84586L26.7265 9.83307C26.4537 10.1111 26.393 10.5435 26.5749 10.9039C27.4439 12.5719 27.939 14.487 27.939 16.5051C27.939 18.5232 27.4439 20.4384 26.5749 22.1064C26.393 22.4565 26.4537 22.8889 26.7265 23.1772L28.6767 25.1644C29.0808 25.5763 29.7679 25.4939 30.0711 24.9894C31.5362 22.508 32.385 19.6147 32.385 16.5154C32.385 13.4162 31.5362 10.5126 30.0711 8.04149C29.7679 7.51638 29.0808 7.42371 28.6767 7.84586V7.84586Z" fill="white"/>
<path d="M21.9875 27.6046C21.7248 27.3369 21.3307 27.2648 20.9972 27.4193C19.5321 28.0886 17.9052 28.4695 16.1875 28.4695C14.207 28.4695 12.3275 27.965 10.6906 27.0795C10.3471 26.8942 9.92266 26.956 9.63973 27.234L7.68956 29.2212C7.28538 29.633 7.36621 30.3332 7.86134 30.6421C10.2965 32.1351 13.1359 32.9999 16.1875 32.9999C18.9258 32.9999 21.5025 32.2998 23.7659 31.0745C24.2913 30.7862 24.4025 30.0655 23.9781 29.633L21.9875 27.6046Z" fill="white"/>
<path d="M5.28469 22.405C5.5474 22.1373 5.61813 21.7357 5.46657 21.3959C4.80977 19.9029 4.4359 18.2452 4.4359 16.4948C4.4359 14.7445 4.80977 13.097 5.46657 11.5938C5.61813 11.254 5.5474 10.8524 5.28469 10.5847L3.3042 8.56661C2.87981 8.13416 2.17249 8.24742 1.88956 8.78283C0.687124 11.0789 1.52588e-05 13.7045 1.52588e-05 16.4948C1.52588e-05 19.2852 0.687124 21.9107 1.88956 24.2171C2.17249 24.7526 2.87981 24.8658 3.3042 24.4334L5.28469 22.405Z" fill="white"/>
<path d="M48.8756 16.5669C47.9965 15.7432 46.7435 15.2387 45.1571 15.0842C43.8739 14.9504 42.9847 14.6827 42.5199 14.2811C42.0753 13.9001 41.853 13.4471 41.853 12.8808C41.853 12.2939 42.0854 11.8512 42.5704 11.5423C43.1059 11.2025 43.8233 11.0274 44.7024 11.0274C45.4199 11.0274 46.0059 11.1613 46.4606 11.429C46.9153 11.6967 47.2993 12.0983 47.6024 12.6028C47.7237 12.8293 47.8955 13.0044 48.1178 13.1382C48.33 13.2618 48.5725 13.3338 48.8251 13.3338C49.0777 13.3338 49.3101 13.2721 49.5223 13.1382C49.8659 12.8911 50.0477 12.5513 50.0477 12.1498C50.0477 11.8615 49.9568 11.5629 49.7648 11.2643C49.2192 10.3891 48.5422 9.69921 47.7641 9.22557C46.9659 8.74164 45.9857 8.50482 44.8439 8.50482C43.8132 8.50482 42.8634 8.66956 42.0247 8.99905C41.1658 9.33883 40.4787 9.83306 39.9836 10.4817C39.4784 11.1407 39.2157 11.9335 39.2157 12.8293C39.2157 14.0958 39.7108 15.1769 40.6808 16.0212C41.6307 16.8449 42.9341 17.3391 44.5509 17.5039C45.6017 17.6069 46.3798 17.8952 46.8749 18.3585C47.3599 18.8115 47.5923 19.3366 47.5923 19.975C47.5923 20.6237 47.3195 21.1179 46.7638 21.4989C46.1676 21.9005 45.43 22.1064 44.561 22.1064C43.8132 22.1064 43.1261 21.9416 42.5098 21.6225C41.9136 21.3136 41.5195 20.9429 41.3275 20.531C41.2164 20.2633 41.0345 20.0471 40.792 19.8824C40.5495 19.7176 40.2969 19.6455 40.024 19.6455C39.9129 19.6455 39.8219 19.6558 39.7512 19.6764C39.4481 19.7485 39.2056 19.8824 39.0136 20.078C38.8115 20.2942 38.7104 20.5516 38.7104 20.8399C38.7104 20.9944 38.7509 21.1591 38.8317 21.365C39.2359 22.3432 39.9836 23.1463 41.0547 23.7538C42.1056 24.3407 43.2777 24.6496 44.561 24.6496C45.531 24.6496 46.4606 24.4746 47.3094 24.1348C48.1784 23.7847 48.8857 23.2493 49.4111 22.5388C49.9467 21.8181 50.2195 20.9429 50.2195 19.9441C50.2397 18.5335 49.785 17.4112 48.8756 16.5669V16.5669Z" fill="white"/>
<path d="M62.7289 12.5616C62.4763 12.3042 62.1428 12.1703 61.7387 12.1703C61.3547 12.1703 61.0212 12.3042 60.7585 12.5616C60.4958 12.819 60.3644 13.1588 60.3644 13.5706V19.5117C60.3644 19.9544 60.2533 20.3457 60.0209 20.6958C59.7885 21.0561 59.455 21.3444 59.0306 21.5504C58.6063 21.7666 58.1212 21.8695 57.5958 21.8695C56.6763 21.8695 55.969 21.6121 55.4334 21.087C54.8979 20.5722 54.6352 19.7794 54.6352 18.7394V13.5603C54.6352 13.1588 54.5038 12.8293 54.2411 12.5616C53.9784 12.2939 53.655 12.16 53.261 12.16C52.8669 12.16 52.5435 12.2939 52.2808 12.5616C52.0181 12.8293 51.8867 13.1588 51.8867 13.5603V18.7394C51.8867 19.9235 52.1192 20.9635 52.5638 21.8078C53.0185 22.6624 53.655 23.3316 54.4735 23.7847C55.2718 24.2274 56.1913 24.4539 57.1916 24.4539C57.9191 24.4539 58.6063 24.3201 59.2529 24.0627C59.6874 23.8876 60.0815 23.6611 60.4453 23.3831C60.5059 23.5993 60.6171 23.7847 60.7787 23.9494C61.0414 24.2171 61.3648 24.351 61.7589 24.351C62.163 24.351 62.4965 24.2171 62.7491 23.9494C63.0017 23.6817 63.1331 23.3522 63.1331 22.9507V13.5603C63.1028 13.1588 62.9815 12.819 62.7289 12.5616V12.5616Z" fill="white"/>
<path d="M73.7833 18.2967C73.1063 17.7098 72.015 17.2671 70.4488 16.9376C69.7415 16.7831 69.1958 16.639 68.832 16.4846C68.4178 16.3095 68.2561 16.1654 68.1854 16.0624C68.0843 15.9285 68.0439 15.7638 68.0439 15.5476C68.0439 15.3828 68.0944 15.1357 68.4784 14.9195C68.832 14.7239 69.307 14.6312 69.893 14.6312C70.4084 14.6312 70.8429 14.693 71.1965 14.8165C71.5401 14.9298 71.8634 15.146 72.1767 15.4343C72.5202 15.7535 72.9244 15.9183 73.3589 15.9183C73.662 15.9183 73.9146 15.8359 74.1369 15.6711C74.4502 15.4137 74.6017 15.1048 74.6017 14.7651C74.6017 14.4665 74.4906 14.1679 74.2582 13.8899C73.8136 13.3339 73.2073 12.8911 72.4495 12.5719C71.7017 12.263 70.853 12.1086 69.9233 12.1086C69.1554 12.1086 68.4279 12.2321 67.7509 12.4895C67.0536 12.747 66.4777 13.1382 66.0432 13.653C65.5986 14.1885 65.3662 14.8474 65.3662 15.6094C65.3662 17.4833 66.7909 18.7086 69.5899 19.2543C70.5599 19.4396 71.2571 19.6661 71.6411 19.9339C71.9746 20.1604 72.1362 20.4281 72.1362 20.7473C72.1362 21.0768 71.9746 21.3342 71.6411 21.5401C71.2571 21.7769 70.7014 21.8902 69.9739 21.8902C69.4282 21.8902 68.9028 21.7872 68.4178 21.5916C67.9428 21.3959 67.5892 21.1591 67.3467 20.8914C66.7909 20.3251 66.1341 20.2427 65.4167 20.7782C65.0631 21.0459 64.8711 21.4268 64.8711 21.8593C64.8711 22.1991 64.9923 22.4977 65.2348 22.7448C65.7299 23.2493 66.4272 23.6714 67.2962 23.9803C68.155 24.2892 69.0746 24.4437 70.0446 24.4437C71.0247 24.4437 71.8735 24.2789 72.5808 23.9597C73.2983 23.6303 73.854 23.1772 74.238 22.6006C74.6119 22.024 74.8038 21.365 74.8038 20.6649C74.8341 19.697 74.4805 18.9042 73.7833 18.2967V18.2967Z" fill="white"/>
<path d="M82.9481 22.0034C82.7157 21.7357 82.4125 21.6018 82.0791 21.6018H81.3718C81.0282 21.6018 80.7453 21.4577 80.5028 21.1488C80.2502 20.8296 80.1188 20.428 80.1188 19.9441V15.0739H81.5537C81.9275 15.0739 82.2307 14.9606 82.4732 14.7341C82.7157 14.5076 82.847 14.209 82.847 13.8589C82.847 13.4883 82.7258 13.1794 82.4732 12.9426C82.2307 12.716 81.9275 12.6028 81.5537 12.6028H80.1289V9.90511C80.1289 9.51385 79.9976 9.17406 79.7449 8.91665C79.4923 8.65924 79.169 8.52539 78.7749 8.52539C78.3808 8.52539 78.0575 8.65924 77.8049 8.91665C77.5523 9.17406 77.4209 9.50355 77.4209 9.90511V12.6131H76.7944C76.4206 12.6131 76.1174 12.7263 75.8749 12.9528C75.6324 13.1897 75.501 13.4883 75.501 13.8692C75.501 14.209 75.6324 14.5076 75.8749 14.7444C76.1174 14.9709 76.4206 15.0842 76.7944 15.0842H77.4209V19.9544C77.4209 20.7781 77.5927 21.5298 77.9362 22.1887C78.2798 22.858 78.7547 23.3934 79.361 23.7744C79.9672 24.1656 80.6443 24.3613 81.3819 24.3613H81.7557C82.1902 24.3613 82.554 24.2377 82.8369 23.9906C83.13 23.7332 83.2916 23.3831 83.2916 22.9816C83.2916 22.5903 83.1704 22.2608 82.9481 22.0034V22.0034Z" fill="white"/>
<path d="M100.843 9.02991C100.51 8.69013 100.116 8.52539 99.661 8.52539C99.2063 8.52539 98.8021 8.70043 98.4788 9.02991C98.1453 9.3697 97.9836 9.77126 97.9836 10.2346C97.9836 10.6979 98.1554 11.1098 98.4788 11.4393C98.8122 11.7791 99.2063 11.9438 99.661 11.9438C100.116 11.9438 100.52 11.7688 100.843 11.4393C101.177 11.0995 101.338 10.6979 101.338 10.2346C101.338 9.78155 101.177 9.3697 100.843 9.02991Z" fill="white"/>
<path d="M99.6609 13.1794C99.277 13.1794 98.9435 13.3132 98.6808 13.5706C98.4181 13.8281 98.2867 14.1678 98.2867 14.5797V22.961C98.2867 23.3625 98.4181 23.692 98.6808 23.9597C98.9435 24.2274 99.2669 24.3613 99.6609 24.3613C100.065 24.3613 100.399 24.2274 100.651 23.9597C100.904 23.692 101.025 23.3625 101.025 22.961V14.5797C101.025 14.1678 100.894 13.8281 100.641 13.5706C100.399 13.3132 100.065 13.1794 99.6609 13.1794V13.1794Z" fill="white"/>
<path d="M114.333 14.7341C113.878 13.8692 113.241 13.2103 112.423 12.7572C111.625 12.3145 110.705 12.088 109.705 12.088C108.977 12.088 108.29 12.2218 107.644 12.4792C107.209 12.6543 106.815 12.8808 106.461 13.1588C106.401 12.9426 106.29 12.7469 106.138 12.5822C105.885 12.3248 105.552 12.1909 105.148 12.1909C104.764 12.1909 104.43 12.3248 104.168 12.5822C103.905 12.8396 103.774 13.1794 103.774 13.5912V22.9816C103.774 23.3831 103.905 23.7126 104.168 23.9803C104.43 24.248 104.754 24.3819 105.148 24.3819C105.552 24.3819 105.885 24.248 106.138 23.9803C106.391 23.7126 106.522 23.3831 106.522 22.9816V17.0405C106.522 16.5978 106.633 16.2065 106.866 15.8564C107.098 15.4961 107.431 15.2078 107.856 15.0018C108.28 14.7856 108.765 14.6724 109.291 14.6724C110.21 14.6724 110.917 14.9298 111.453 15.4549C111.989 15.9697 112.251 16.7625 112.251 17.8025V22.9816C112.251 23.3831 112.383 23.7126 112.645 23.9803C112.908 24.248 113.231 24.3819 113.625 24.3819C114.02 24.3819 114.343 24.248 114.606 23.9803C114.868 23.7126 115 23.3831 115 22.9816V17.8025C115.01 16.6184 114.777 15.5887 114.333 14.7341V14.7341Z" fill="white"/>
<path d="M94.7502 12.191C94.3662 12.191 94.0327 12.3248 93.77 12.5822C93.6184 12.7264 93.5073 12.9117 93.4467 13.1073C93.3557 13.0456 93.2547 12.9838 93.1637 12.922C92.2543 12.3866 91.2338 12.1086 90.1223 12.1086C89.0108 12.1086 87.9801 12.3866 87.0606 12.922C86.1411 13.4574 85.4035 14.209 84.8881 15.146C84.3627 16.083 84.1 17.1435 84.1 18.2864C84.1 19.4293 84.3425 20.4796 84.8275 21.4165C85.3125 22.3535 85.9895 23.1051 86.8484 23.6406C87.6972 24.176 88.6672 24.4437 89.708 24.4437C90.5467 24.4437 91.3449 24.2583 92.0826 23.9083C92.5575 23.6714 92.992 23.3728 93.386 23.0228C93.3961 23.4037 93.5275 23.7229 93.7801 23.9803C94.0428 24.248 94.3662 24.3819 94.7603 24.3819C95.1543 24.3819 95.4777 24.248 95.7404 23.9803C96.0031 23.7126 96.1345 23.3831 96.1345 22.9816V19.347V18.2864V13.5913C96.1345 13.1794 96.0031 12.8396 95.7505 12.5822C95.4878 12.3248 95.1543 12.191 94.7502 12.191V12.191ZM93.0223 20.1398C92.7393 20.6855 92.3352 21.1179 91.8299 21.4268C91.3247 21.7357 90.7488 21.9005 90.1223 21.9005C89.4958 21.9005 88.9198 21.746 88.4146 21.4268C87.9094 21.1179 87.5052 20.6855 87.2021 20.1398C86.909 19.5941 86.7575 18.9763 86.7575 18.2864C86.7575 17.5966 86.909 16.9788 87.2021 16.4228C87.4951 15.8771 87.8993 15.4343 88.4045 15.1254C88.9097 14.8165 89.4857 14.6518 90.1122 14.6518C90.7387 14.6518 91.3146 14.8062 91.8198 15.1254C92.3251 15.4343 92.7292 15.8771 93.0122 16.4228C93.3052 16.9788 93.4467 17.6069 93.4467 18.2864C93.4669 18.9763 93.3153 19.5941 93.0223 20.1398V20.1398Z" fill="white"/>
</g>
<defs>
<clipPath id="clip0">
<rect width="115" height="33" fill="white"/>
</clipPath>
</defs>
</svg>
