<svg width="133" height="25" viewBox="0 0 133 25" fill="none" xmlns="http://www.w3.org/2000/svg">
<path d="M77.3956 3.45166V3.43287C77.3956 2.48 76.7071 1.65026 75.6982 1.65026C74.6981 1.65026 74.0287 2.46158 74.0287 3.41369V3.43287C74.0287 4.38535 74.7173 5.21547 75.7166 5.21547C76.7263 5.21547 77.3956 4.40415 77.3956 3.45166ZM72.1522 3.45166V3.43287C72.1522 1.5371 73.6797 0 75.7166 0C77.7539 0 79.263 1.51792 79.263 3.41369V3.43287C79.263 5.32825 77.7351 6.86573 75.6982 6.86573C73.6609 6.86573 72.1522 5.34743 72.1522 3.45166Z" fill="white"/>
<path d="M82.8827 3.72301C83.9768 3.72301 84.6933 3.1384 84.6933 2.27068V2.25189C84.6933 1.30861 83.986 0.81836 82.9203 0.81836H81.2513V3.72301H82.8827ZM80.5059 0.129791H82.9771C84.467 0.129791 85.4479 0.921549 85.4479 2.22312V2.2423C85.4479 3.66662 84.2599 4.40199 82.8543 4.40199H81.2513V6.73161H80.5059V0.129791Z" fill="white"/>
<path d="M86.7457 0.129791H91.5181V0.80877H87.4911V3.06283H91.0939V3.7418H87.4911V6.05263H91.5649V6.73161H86.7457V0.129791Z" fill="white"/>
<path d="M93.0041 0.129791H93.7019L97.8613 5.42045V0.129791H98.5875V6.73161H97.9932L93.7306 1.3182V6.73161H93.0041V0.129791Z" fill="white"/>
<path d="M72.6342 14.3846L73.6527 13.1678C74.3037 13.6868 75.0298 13.9603 75.7936 13.9603C76.2842 13.9603 76.5485 13.7904 76.5485 13.508V13.4888C76.5485 13.2153 76.3314 13.0646 75.4357 12.8567C74.0302 12.5364 72.9453 12.1397 72.9453 10.7818V10.763C72.9453 9.53734 73.917 8.65045 75.5013 8.65045C76.6237 8.65045 77.501 8.95235 78.2176 9.52775L77.3027 10.8197C76.6993 10.3955 76.0391 10.1688 75.4541 10.1688C75.0106 10.1688 74.7939 10.3575 74.7939 10.5934V10.6122C74.7939 10.9141 75.0202 11.0461 75.9351 11.2536C77.4534 11.5839 78.3967 12.0741 78.3967 13.3097V13.3285C78.3967 14.6772 77.3311 15.479 75.7276 15.479C74.5584 15.479 73.4455 15.1111 72.6342 14.3846Z" fill="white"/>
<path d="M85.2421 12.0833V12.0645C85.2421 10.565 84.148 9.33902 82.6393 9.33902C81.1302 9.33902 80.0554 10.5462 80.0554 12.0457V12.0645C80.0554 13.564 81.149 14.7904 82.6577 14.7904C84.1672 14.7904 85.2421 13.5832 85.2421 12.0833ZM79.282 12.0833V12.0645C79.282 10.2439 80.6496 8.65045 82.6577 8.65045C84.6671 8.65045 86.0154 10.2255 86.0154 12.0457V12.0645C86.0154 13.8847 84.6479 15.4786 82.6393 15.4786C80.6304 15.4786 79.282 13.9035 79.282 12.0833Z" fill="white"/>
<path d="M87.4225 12.6094V8.77103H88.1678V12.5626C88.1678 13.9865 88.9224 14.7882 90.186 14.7882C91.4024 14.7882 92.1757 14.0521 92.1757 12.6094V8.77103H92.9214V12.553C92.9214 14.4767 91.8174 15.4764 90.1675 15.4764C88.5353 15.4764 87.4225 14.4767 87.4225 12.6094Z" fill="white"/>
<path d="M97.3993 12.1379C98.3898 12.1379 99.0968 11.6281 99.0968 10.7796V10.7604C99.0968 9.94984 98.4746 9.4596 97.4089 9.4596H95.372V12.1379H97.3993ZM94.6266 8.77103H97.4653C98.2766 8.77103 98.9272 9.01615 99.3419 9.43083C99.663 9.75152 99.8517 10.2138 99.8517 10.7324V10.7516C99.8517 11.8452 99.0968 12.4862 98.0595 12.675L100.087 15.3725H99.1724L97.2582 12.8073H95.372V15.3725H94.6266V8.77103Z" fill="white"/>
<path d="M101.098 12.0833V12.0645C101.098 10.1971 102.494 8.65045 104.437 8.65045C105.634 8.65045 106.351 9.07472 107.012 9.6973L106.502 10.2439C105.945 9.71648 105.323 9.33902 104.427 9.33902C102.966 9.33902 101.872 10.527 101.872 12.0457V12.0645C101.872 13.5924 102.975 14.7904 104.427 14.7904C105.332 14.7904 105.927 14.4413 106.558 13.8375L107.049 14.3186C106.361 15.0163 105.606 15.4786 104.408 15.4786C102.503 15.4786 101.098 13.9791 101.098 12.0833Z" fill="white"/>
<path d="M108.293 8.77103H113.065V9.45001H109.038V11.7041H112.641V12.383H109.038V14.6939H113.112V15.3728H108.293V8.77103Z" fill="white"/>
<path d="M72.3376 20.7248V20.706C72.3376 18.7822 73.8183 17.2731 75.8173 17.2731C77.1664 17.2731 78.0341 17.8389 78.6187 18.6499L77.242 19.7159C76.8645 19.2441 76.4306 18.9425 75.7988 18.9425C74.8744 18.9425 74.2238 19.7251 74.2238 20.6872V20.706C74.2238 21.6964 74.8744 22.4698 75.7988 22.4698C76.4874 22.4698 76.8929 22.1491 77.2888 21.6677L78.6655 22.6489C78.0437 23.507 77.204 24.1388 75.7421 24.1388C73.8559 24.1388 72.3376 22.6957 72.3376 20.7248Z" fill="white"/>
<path d="M85.4089 20.7245V20.7057C85.4089 19.2062 84.3149 17.9802 82.8061 17.9802C81.2971 17.9802 80.2222 19.1874 80.2222 20.6869V20.7057C80.2222 22.2052 81.3158 23.4316 82.8246 23.4316C84.334 23.4316 85.4089 22.2244 85.4089 20.7245ZM79.4489 20.7245V20.7057C79.4489 18.8851 80.8164 17.2917 82.8246 17.2917C84.8339 17.2917 86.1822 18.8667 86.1822 20.6869V20.7057C86.1822 22.5259 84.8147 24.1198 82.8061 24.1198C80.7972 24.1198 79.4489 22.5447 79.4489 20.7245Z" fill="white"/>
<path d="M87.7007 17.4029H88.446V23.3162H92.1616V24.0047H87.7007V17.4029Z" fill="white"/>
<path d="M93.4769 17.4029H94.2223V23.3162H97.9378V24.0047H93.4769V17.4029Z" fill="white"/>
<path d="M99.2625 17.4029H104.035V18.0819H100.008V20.336H103.611V21.0149H100.008V23.3258H104.082V24.0047H99.2625V17.4029Z" fill="white"/>
<path d="M105.224 20.7245V20.7057C105.224 18.8383 106.62 17.2917 108.563 17.2917C109.76 17.2917 110.477 17.7159 111.137 18.3385L110.628 18.8851C110.071 18.3577 109.449 17.9802 108.553 17.9802C107.092 17.9802 105.997 19.1682 105.997 20.6869V20.7057C105.997 22.2336 107.101 23.4316 108.553 23.4316C109.458 23.4316 110.053 23.0825 110.684 22.4787L111.175 22.9598C110.487 23.6576 109.732 24.1198 108.534 24.1198C106.629 24.1198 105.224 22.6203 105.224 20.7245Z" fill="white"/>
<path d="M114.171 18.0915H111.955V17.4029H117.142V18.0915H114.926V24.0047H114.171V18.0915Z" fill="white"/>
<path d="M119.284 17.4029H118.538V24.0047H119.284V17.4029Z" fill="white"/>
<path d="M120.597 17.4029H121.426L123.775 23.0898L126.133 17.4029H126.934L124.095 24.0515H123.435L120.597 17.4029Z" fill="white"/>
<path d="M128.181 17.4029H132.953V18.0819H128.926V20.336H132.529V21.0149H128.926V23.3258H133V24.0047H128.181V17.4029Z" fill="white"/>
<path d="M11.9964 5.97053C8.57239 5.97053 5.78704 8.75588 5.78704 12.1799C5.78704 15.6036 8.57239 18.3893 11.9964 18.3893C15.4205 18.3893 18.2058 15.6036 18.2058 12.1799C18.2058 8.75588 15.4205 5.97053 11.9964 5.97053ZM11.9964 24.1764C5.38157 24.1764 0 18.7948 0 12.1799C0 5.56468 5.38157 0.183105 11.9964 0.183105C18.6117 0.183105 23.9932 5.56468 23.9932 12.1799C23.9932 18.7948 18.6117 24.1764 11.9964 24.1764Z" fill="white"/>
<path d="M59.6254 24.1787C53.0101 24.1787 47.6285 18.7971 47.6285 12.1819C47.6285 5.567 53.0101 0.185425 59.6254 0.185425V5.97285C56.2013 5.97285 53.416 8.75819 53.416 12.1819C53.416 15.6059 56.2013 18.3912 59.6254 18.3912V24.1787Z" fill="white"/>
<path d="M29.7647 12.0428H23.9773C23.9773 5.42793 29.3589 0.0463562 35.9741 0.0463562V5.8334C32.5505 5.8334 29.7647 8.61874 29.7647 12.0428Z" fill="white"/>
<path d="M36.0025 23.9117V18.1242C39.4266 18.1242 42.2119 15.3389 42.2119 11.9156H47.9993C47.9993 18.5301 42.6174 23.9117 36.0025 23.9117Z" fill="white"/>
</svg>
